<svg id="Layer_2" data-name="Layer 2" xmlns="http://www.w3.org/2000/svg" viewBox="0 0 178.17 307.72">
  <defs>
    <style>
      <!-- .cls-1{fill:#71967e;}.cls-2{fill:#96c8a8;}.cls-3{fill:#abd3b9;}.cls-4{fill:#4b6454;}.cls-5{fill:#26322a;} -->
      .cls-poly{fill:#63CCCA;stroke:#F7F9F4;}
    </style>
  </defs>
  <title>b</title>
  <polygon stroke-width="13" class="cls-poly cls-1" points="89.08 204.93 0 153.54 89.08 102.15 89.08 204.93"/>
  <polygon stroke-width="13" class="cls-poly cls-2" points="0 51 0 153.54 89.08 102.15 0 51"/>
  <polygon stroke-width="13" class="cls-poly cls-3" points="89.08 0 89.08 102.15 0 51 89.08 0"/>
  <polygon stroke-width="13" class="cls-poly cls-4" points="89.08 204.93 178.17 153.54 89.08 102.15 89.08 204.93"/>
  <polygon stroke-width="13" class="cls-poly cls-5" points="178.17 256.33 89.08 204.93 178.17 153.54 178.17 256.33"/>
  <polygon stroke-width="13" class="cls-poly cls-4" points="89.08 307.72 89.08 204.93 178.17 256.33 89.08 307.72"/>
  <polygon stroke-width="13" class="cls-poly cls-1" points="0 256.33 89.08 204.93 89.08 307.72 0 256.33"/>
  <polygon stroke-width="13" class="cls-poly cls-4" points="0 153.54 0 256.33 89.08 204.93 0 153.54"/>
</svg>
